<?xml version="1.0" encoding="utf-8"?>
<!-- Generator: Adobe Illustrator 23.0.2, SVG Export Plug-In . SVG Version: 6.00 Build 0)  -->
<svg version="1.1" id="Layer_1" xmlns="http://www.w3.org/2000/svg" xmlns:xlink="http://www.w3.org/1999/xlink" x="0px" y="0px"
	 viewBox="0 0 144 144" style="enable-background:new 0 0 144 144;" xml:space="preserve">
<style type="text/css">
	.st0{fill:#636261;}
	.st1{fill:#FFFFFF;}
</style>
<g>
	<circle class="st0" cx="72" cy="71.86" r="72"/>
	<path class="st1" d="M109.6,62H81V33.67c0-5.16-4.34-9.34-9.5-9.34c-5.16,0-9.5,4.18-9.5,9.34V62H33.93c-5.16,0-9.34,4.34-9.34,9.5
		c0,5.16,4.18,9.5,9.34,9.5H62v28.34c0,5.16,4.34,9.33,9.5,9.33c5.16,0,9.5-4.18,9.5-9.33V81h28.6c5.16,0,9.34-4.34,9.34-9.5
		C118.94,66.34,114.76,62,109.6,62z"/>
</g>
</svg>
