<?xml version="1.0" encoding="utf-8"?>
<!-- Generator: Adobe Illustrator 23.0.2, SVG Export Plug-In . SVG Version: 6.00 Build 0)  -->
<svg version="1.1" id="Layer_1" xmlns="http://www.w3.org/2000/svg" xmlns:xlink="http://www.w3.org/1999/xlink" x="0px" y="0px"
	 viewBox="0 0 92 92" style="enable-background:new 0 0 92 92;" xml:space="preserve">
<g>
	<path d="M32.45,51.69c0-1.07-0.86-1.94-1.91-1.94H26.7c-1.06,0-1.92,0.87-1.92,1.94v2.91c0,1.07,0.86,1.94,1.92,1.94h3.83
		c1.06,0,1.91-0.87,1.91-1.94V51.69z"/>
	<path d="M66.93,51.69c0-1.07-0.86-1.94-1.92-1.94h-3.83c-1.06,0-1.92,0.87-1.92,1.94v2.91c0,1.07,0.86,1.94,1.92,1.94h3.83
		c1.06,0,1.92-0.87,1.92-1.94V51.69z"/>
	<path d="M43.94,51.69c0-1.07-0.86-1.94-1.91-1.94h-3.83c-1.06,0-1.91,0.87-1.91,1.94v2.91c0,1.07,0.86,1.94,1.91,1.94h3.83
		c1.06,0,1.91-0.87,1.91-1.94V51.69z"/>
	<path d="M55.43,51.69c0-1.07-0.86-1.94-1.92-1.94h-3.83c-1.06,0-1.91,0.87-1.91,1.94v2.91c0,1.07,0.86,1.94,1.91,1.94h3.83
		c1.06,0,1.92-0.87,1.92-1.94V51.69z"/>
	<path d="M32.45,61.64c0-1.07-0.86-1.94-1.91-1.94H26.7c-1.06,0-1.92,0.87-1.92,1.94v2.91c0,1.07,0.86,1.94,1.92,1.94h3.83
		c1.06,0,1.91-0.87,1.91-1.94V61.64z"/>
	<path d="M43.94,61.64c0-1.07-0.86-1.94-1.91-1.94h-3.83c-1.06,0-1.91,0.87-1.91,1.94v2.91c0,1.07,0.86,1.94,1.91,1.94h3.83
		c1.06,0,1.91-0.87,1.91-1.94V61.64z"/>
	<path d="M55.43,61.64c0-1.07-0.86-1.94-1.92-1.94h-3.83c-1.06,0-1.91,0.87-1.91,1.94v2.91c0,1.07,0.86,1.94,1.91,1.94h3.83
		c1.06,0,1.92-0.87,1.92-1.94V61.64z"/>
	<path d="M66.93,61.64c0-1.07-0.86-1.94-1.92-1.94h-3.83c-1.06,0-1.92,0.87-1.92,1.94v2.91c0,1.07,0.86,1.94,1.92,1.94h3.83
		c1.06,0,1.92-0.87,1.92-1.94V61.64z"/>
	<path d="M82,74.24c0,4.28-3.43,7.76-7.66,7.76H17.66C13.43,82,10,78.53,10,74.24V17.76c0-4.28,3.43-7.76,7.66-7.76h56.68
		c4.23,0,7.66,3.47,7.66,7.76V74.24z M78.44,17.72c0-2.28-1.82-4.12-4.07-4.12H17.63c-2.25,0-4.07,1.84-4.07,4.12v56.56
		c0,2.28,1.82,4.12,4.07,4.12h56.75c2.25,0,4.07-1.84,4.07-4.12V17.72z"/>
	<path d="M21.78,29.99c-0.45,0-0.89-0.21-1.17-0.57l-3.41-4.36c-0.51-0.66-0.4-1.61,0.24-2.13c0.65-0.52,1.59-0.41,2.1,0.25
		l1.97,2.53l3.96-7.74c0.38-0.74,1.28-1.03,2.02-0.65c0.73,0.39,1.02,1.3,0.64,2.04l-5.03,9.82c-0.23,0.46-0.68,0.76-1.19,0.81
		C21.88,29.99,21.83,29.99,21.78,29.99z"/>
	<path d="M72.85,30.7H27.36c-0.66,0-1.2-0.68-1.2-1.35c0-0.67,0.54-1.35,1.2-1.35h45.49c0.66,0,1.2,0.68,1.2,1.35
		C74.05,30.02,73.51,30.7,72.85,30.7z"/>
	<path d="M74.89,37.31c0-0.67-0.54-1.21-1.2-1.21H18.31c-0.66,0-1.2,0.54-1.2,1.21v34.48c0,0.67,0.54,1.21,1.2,1.21h55.38
		c0.66,0,1.2-0.54,1.2-1.21V37.31z M72.22,38.8v6.3H19.78v-6.3H72.22z M19.78,71.2V47.8h52.44v23.4H19.78z"/>
</g>
</svg>
