<?xml version="1.0" encoding="utf-8"?>
<!-- Generator: Adobe Illustrator 23.0.2, SVG Export Plug-In . SVG Version: 6.00 Build 0)  -->
<svg version="1.1" id="Layer_1" xmlns="http://www.w3.org/2000/svg" xmlns:xlink="http://www.w3.org/1999/xlink" x="0px" y="0px"
	 viewBox="0 0 92 92" style="enable-background:new 0 0 92 92;" xml:space="preserve">
<g>
	<path d="M64.05,78.91c0,1.69-0.76,3.13-2.32,3.13H51.38c-1.56,0-3.33-1.44-3.33-3.13V46.25c0-1.69,1.77-3.22,3.33-3.22h10.35
		c1.56,0,2.32,1.53,2.32,3.22V78.91z"/>
	<path d="M44.05,78.97c0,1.66-0.76,3.07-2.32,3.07H31.38c-1.56,0-3.33-1.41-3.33-3.07v-27c0-1.66,1.77-2.93,3.33-2.93h10.35
		c1.56,0,2.32,1.28,2.32,2.93V78.97z"/>
	<path d="M24.05,78.97c0,1.66-0.76,3.07-2.32,3.07H11.38c-1.56,0-3.33-1.41-3.33-3.07v-22c0-1.66,1.77-2.93,3.33-2.93h10.35
		c1.56,0,2.32,1.28,2.32,2.93V78.97z"/>
	<path d="M29.92,34.89h32.21c0.74,0,1.44-0.29,1.97-0.8l14.65-14.68v4.4h5.54V12.73c0-1.53-1.24-2.77-2.77-2.77H70.44v5.54h4.4
		L61,29.35H28.9c-0.66,0-1.3,0.24-1.8,0.66L7.72,46.63l3.6,4.21L29.92,34.89z"/>
	<path d="M84.05,78.97c0,1.66-0.76,3.07-2.32,3.07H71.38c-1.56,0-3.33-1.41-3.33-3.07v-38c0-1.66,1.77-2.93,3.33-2.93h10.35
		c1.56,0,2.32,1.28,2.32,2.93V78.97z"/>
</g>
</svg>
