<?xml version="1.0"?>
<svg xmlns="http://www.w3.org/2000/svg" viewBox="0 0 64 64" width="512" height="512"><g id="Layer_27" data-name="Layer 27"><path d="M62,29H2a1,1,0,0,0-1,1V62a1,1,0,0,0,1,1H62a1,1,0,0,0,1-1V30A1,1,0,0,0,62,29ZM61,61H3V31H61Z"/><path d="M32,51a2,2,0,0,1-2-2H28a4,4,0,0,0,3,3.86V55h2V52.86A4,4,0,0,0,32,45a2,2,0,1,1,2-2h2a4,4,0,0,0-3-3.86V37H31v2.14A4,4,0,0,0,32,47a2,2,0,0,1,0,4Z"/><path d="M32,59A13,13,0,1,0,19,46,13,13,0,0,0,32,59Zm0-24A11,11,0,1,1,21,46,11,11,0,0,1,32,35Z"/><path d="M48,46h2v8a1,1,0,0,0,1,1h4a1,1,0,0,0,1-1V46h2a1,1,0,0,0,.81-1.58l-5-7a1,1,0,0,0-1.62,0l-5,7A1,1,0,0,0,48,46Zm5-6.28L56.06,44H55a1,1,0,0,0-1,1v8H52V45a1,1,0,0,0-1-1H49.94Z"/><path d="M10.19,54.58a1,1,0,0,0,1.62,0l5-7A1,1,0,0,0,16,46H14V38a1,1,0,0,0-1-1H9a1,1,0,0,0-1,1v8H6a1,1,0,0,0-.81,1.58ZM9,48a1,1,0,0,0,1-1V39h2v8a1,1,0,0,0,1,1h1.06L11,52.28,7.94,48Z"/><path d="M18,27h4a1,1,0,0,0,1-1V18a1,1,0,0,0-1-1H18a1,1,0,0,0-1,1v8A1,1,0,0,0,18,27Zm1-8h2v6H19Z"/><path d="M26,15a1,1,0,0,0-1,1V26a1,1,0,0,0,1,1h4a1,1,0,0,0,1-1V16a1,1,0,0,0-1-1Zm3,10H27V17h2Z"/><path d="M34,13a1,1,0,0,0-1,1V26a1,1,0,0,0,1,1h4a1,1,0,0,0,1-1V14a1,1,0,0,0-1-1Zm3,12H35V15h2Z"/><path d="M42,11a1,1,0,0,0-1,1V26a1,1,0,0,0,1,1h4a1,1,0,0,0,1-1V12a1,1,0,0,0-1-1Zm3,14H43V13h2Z"/><path d="M26.37,10H38a1,1,0,0,0,.71-.29L44,4.41V6h2V2a1,1,0,0,0-1-1H41V3h1.59l-5,5H26a1,1,0,0,0-.65.24l-7,6,1.3,1.52Z"/></g></svg>
