<?xml version="1.0" encoding="utf-8"?>
<!-- Generator: Adobe Illustrator 23.0.2, SVG Export Plug-In . SVG Version: 6.00 Build 0)  -->
<svg version="1.1" id="Layer_1" xmlns="http://www.w3.org/2000/svg" xmlns:xlink="http://www.w3.org/1999/xlink" x="0px" y="0px"
	 viewBox="0 0 120 92" style="enable-background:new 0 0 120 92;" xml:space="preserve">
<g>
	<path d="M33.76,36.77c-2.24,0-4.25-0.7-5.84-2.02c-1.22-1.02-2.21-2.84-3.02-5.57c-0.65-2.18-1.12-4.78-1.34-7.33
		c-0.29-3.48-0.21-8.12,1.8-10.48c0.78-0.92,1.99-1.38,3.57-1.38c3.02,0,7.34,1.65,9.06,2.35c2.64,1.09,6.03,2.73,7.18,4.38
		l0.18,0.25l0.11,0.29c0.04,0.09,0.91,2.34,1.19,5.17c0.41,4.07-0.57,7.42-2.85,9.7C40.86,35.08,37.2,36.77,33.76,36.77z
		 M29.06,15.13c-0.37,1.01-0.75,3.57-0.23,7.69c0.59,4.68,1.85,7.52,2.39,8c0.82,0.68,1.83,0.83,2.54,0.83
		c2.09,0,4.43-1.14,6.42-3.13c2.45-2.44,1.13-7.41,0.65-8.93c-0.6-0.46-2.3-1.48-5.1-2.61C33.04,15.88,30.44,15.17,29.06,15.13z"/>
	<path d="M43.43,82c-0.53,0-1.07-0.01-1.61-0.02c-0.56-0.01-1.14-0.02-1.71-0.02c-1.88,0-3.05-0.81-3.71-1.49
		c-1.88-1.96-1.76-4.98-1.65-7.65c0.02-0.48,0.04-1.09,0.04-1.6c-2.34-0.32-4.62-1.45-6.78-3.35c-1.99-1.76-3.52-3.86-4.53-5.25
		c-0.14-0.19-0.27-0.37-0.39-0.53c-0.17-0.24-0.34-0.47-0.51-0.7c-1.51-2.1-2.2-3.06-5.17-3.06c-2.41,0-4.18-0.61-5.42-1.87
		c-2.08-2.12-2.03-5.33-1.97-9.4c0.01-0.8,0.03-1.63,0.03-2.5c0-2.64,0.84-4.57,2.51-5.75c1.38-0.98,3.19-1.16,4.44-1.31
		c0.3-0.03,1.25-0.08,1.25-0.14v-0.03L18,37.16c0.91-7.66,7.31-12.27,7.59-12.46l2.86,4.21l-0.02-0.01
		c-0.05,0.03-4.87,3.47-5.56,8.73c-0.06,2.45-1.46,3.6-2.29,4.08c-1.06,0.6-2.23,0.74-3.25,0.86c-0.67,0.08-1.5,0.18-1.81,0.39
		c-0.16,0.11-0.34,0.59-0.34,1.57c0,0.92-0.01,1.77-0.03,2.58c-0.03,1.72-0.05,3.21,0.08,4.3c0.12,1.02,0.33,1.33,0.42,1.42
		c0.16,0.17,0.71,0.34,1.77,0.34c5.6,0,7.58,2.76,9.34,5.19c0.15,0.21,0.31,0.43,0.47,0.65c0.13,0.17,0.27,0.36,0.41,0.56
		c1.79,2.46,4.79,6.58,8.58,6.58c0.96,0,1.85,0.37,2.51,1.05c1.34,1.39,1.25,3.43,1.16,5.79c-0.04,0.94-0.08,2-0.01,2.82
		c0.05,0.62,0.14,1.17,0.2,1.17c0.01,0,0.03,0,0.04,0c0.63,0,1.24-0.07,1.82-0.06c1.11,0.02,2.16,0,2.97-0.08
		c0.69-0.07,0.96-0.21,1.04-0.25c0.02-0.06,0.06-0.23,0.06-0.56c0-2.07,0.22-4.37,1.83-5.72c1.63-1.37,3.65-1.03,5.59-0.69
		c1.15,0.2,2.46,0.42,3.97,0.42c1.45,0,2.91-0.17,4.33-0.34c3.17-0.37,6.17-0.72,8.26,1.13c1.2,1.07,1.81,2.64,1.81,4.68
		c0,0.54,0.04,0.89,0.07,1.1c0.43,0.04,1.16,0.01,1.77,0c0.51-0.01,1.09-0.03,1.72-0.03c0.35,0,0.68,0.01,0.97,0.02
		c0.24,0.01,0.53,0.02,0.76,0.01c0.11-0.4,0.27-1.33,0.27-3.29c0-3.03,0.48-5.07,1.55-6.62c1.07-1.55,2.53-2.27,3.81-2.91
		c1.2-0.6,2.34-1.16,3.57-2.45c0.77-0.81,1.55-1.48,2.24-2.07c2.68-2.31,4.8-4.14,4.8-14.29c0-3.63-0.86-12.79-8.84-19.31
		c-8.49-6.94-22.63-8.65-40.89-4.96l-1.02-5.03c10.55-2.13,19.88-2.58,27.71-1.32c6.99,1.12,12.86,3.59,17.44,7.34
		c3.73,3.05,6.56,6.88,8.4,11.39c1.52,3.71,2.32,7.82,2.32,11.88c0,5.55-0.62,9.51-1.94,12.44c-1.28,2.83-3.07,4.38-4.64,5.74
		c-0.66,0.57-1.28,1.1-1.88,1.73c-1.85,1.94-3.67,2.84-4.99,3.5c-1.02,0.51-1.57,0.8-1.88,1.24c-0.43,0.62-0.64,1.87-0.64,3.71
		c0,3.22-0.31,5.66-1.84,7.14c-1.4,1.35-3.11,1.3-4.48,1.26c-0.26-0.01-0.54-0.02-0.81-0.02c-0.56,0-1.07,0.01-1.57,0.03
		c-2.08,0.06-4.06,0.12-5.55-1.34c-1.39-1.35-1.57-3.32-1.57-4.89c0-0.52-0.07-0.53-0.11-0.62c-0.1-0.04-0.4,0.1-1.11,0.1
		c0,0-0.01,0-0.01,0c-0.86,0-1.95-0.1-3.11,0.03c-1.49,0.17-3.18,0.26-4.92,0.26c-1.96,0-3.56-0.33-4.85-0.56
		c-0.42-0.07-0.93-0.19-1.32-0.23c-0.05,0.31-0.09,0.79-0.09,1.54c0,1.76-0.53,3.17-1.59,4.2C47.99,81.77,45.81,82,43.43,82z"/>
	<path d="M105.92,35.91c0.7-0.87,1.63-1.75,2.86-2.51c1.21-0.75,1.58-2.33,0.83-3.53c-0.75-1.21-2.33-1.58-3.53-0.83
		c-2.74,1.7-4.89,4.1-6.21,6.95c-0.02,0.05-0.05,0.1-0.07,0.15c-2.51,0.4-4.66,0.98-4.76,1.01c-1.37,0.37-2.17,1.78-1.8,3.15
		c0.37,1.37,1.78,2.17,3.15,1.8c0.01,0,0.9-0.24,2.15-0.51c0,0.56,0.04,1.11,0.13,1.62c0.39,2.23,1.69,3.79,3.48,4.17
		c0.24,0.05,0.52,0.09,0.83,0.09c0.79,0,1.8-0.23,2.91-1.02c0.96-0.68,1.87-1.69,2.8-3.08c0.62-0.92,0.99-1.77,1.14-2.59
		c0.25-1.41-0.21-2.42-0.64-3.02C108.5,36.78,107.44,36.18,105.92,35.91z M103.83,42.59c-2.02,0-2.02-3.14,0-3.14
		C105.85,39.45,105.85,42.59,103.83,42.59z"/>
</g>
</svg>
